<?xml version="1.0" encoding="UTF-8" standalone="no"?>
<!-- Created with Inkscape (http://www.inkscape.org/) -->

<svg
   width="122.4638"
   height="128"
   viewBox="0 0 122.4638 128"
   version="1.1"
   id="svg5"
   sodipodi:docname="beast.svg"
   inkscape:version="1.1 (c68e22c387, 2021-05-23)"
   xmlns:inkscape="http://www.inkscape.org/namespaces/inkscape"
   xmlns:sodipodi="http://sodipodi.sourceforge.net/DTD/sodipodi-0.dtd"
   xmlns="http://www.w3.org/2000/svg"
   xmlns:svg="http://www.w3.org/2000/svg">
  <sodipodi:namedview
     id="namedview7"
     pagecolor="#171717"
     bordercolor="#999999"
     borderopacity="1"
     inkscape:pageshadow="0"
     inkscape:pageopacity="0"
     inkscape:pagecheckerboard="0"
     inkscape:document-units="px"
     showgrid="false"
     units="px"
     inkscape:zoom="0.51882119"
     inkscape:cx="549.3222"
     inkscape:cy="-282.37089"
     inkscape:window-width="3440"
     inkscape:window-height="1417"
     inkscape:window-x="-8"
     inkscape:window-y="-8"
     inkscape:window-maximized="1"
     inkscape:current-layer="layer1"
     inkscape:object-paths="true"
     inkscape:snap-intersection-paths="true"
     inkscape:snap-smooth-nodes="true"
     inkscape:snap-midpoints="true"
     inkscape:snap-object-midpoints="true"
     showguides="true"
     inkscape:snap-global="true">
    <inkscape:grid
       type="xygrid"
       id="grid836"
       originx="-1105.876"
       originy="-527.28245" />
  </sodipodi:namedview>
  <defs
     id="defs2" />
  <g
     inkscape:label="Layer 1"
     inkscape:groupmode="layer"
     id="layer1"
     transform="translate(-1105.876,-527.28245)">
    <path
       id="path20758"
       style="fill:#d0905c;fill-opacity:1;stroke:none;stroke-width:0.499999;stroke-linecap:butt;stroke-linejoin:miter;stroke-miterlimit:4;stroke-dasharray:none;stroke-opacity:1"
       d="m 1159.2196,527.28245 c -12.6297,2.35818 -19.891,21.40349 -21.9866,28.31706 -2.0955,6.91356 -0.4185,18.49069 3.709,19.59665 4.1274,1.10596 17.1146,-2.48493 19.8591,-9.83851 2.7444,-7.35357 -1.7314,-30.66322 -1.5815,-38.0752 z m 15.7766,0 c 0.1499,7.41198 -4.3259,30.72163 -1.5815,38.0752 2.7445,7.35358 15.7316,10.94447 19.8591,9.83851 4.1275,-1.10596 5.8045,-12.68309 3.709,-19.59665 -2.0956,-6.91357 -9.357,-25.95888 -21.9866,-28.31706 z m -49.5211,30.75187 c -12.7831,2.65819 -19.5991,25.89144 -19.5991,34.64046 0,8.74902 5.201,17.05548 12.3963,17.05548 7.1953,0 12.9754,-19.86991 12.9754,-25.05253 0,-5.1826 -3.766,-20.09916 -5.7726,-26.64341 z m 83.2656,0 c -2.0066,6.54425 -5.7726,21.46081 -5.7726,26.64341 0,5.18262 5.7801,25.05253 12.9754,25.05253 7.1953,0 12.3963,-8.30646 12.3963,-17.05548 0,-8.74902 -6.816,-31.98227 -19.5991,-34.64046 z m -41.6328,22.77609 c -12.9261,0 -28.3722,8.04651 -29.8276,17.24458 -1.4554,9.19807 -10.2192,18.03202 -12.5026,30.61949 -2.2835,12.58748 16.0886,26.60797 42.3302,26.60797 26.2416,0 44.6137,-14.02049 42.3302,-26.60797 -2.2834,-12.58747 -11.0473,-21.42142 -12.5027,-30.61949 -1.4554,-9.19807 -16.9014,-17.24458 -29.8275,-17.24458 z" />
  </g>
</svg>
