<?xml version="1.0" encoding="UTF-8" standalone="no"?>
<!-- Created with Inkscape (http://www.inkscape.org/) -->

<svg
   width="110.8494"
   height="128"
   viewBox="0 0 110.8494 128"
   version="1.1"
   id="svg5"
   sodipodi:docname="horde.svg"
   inkscape:version="1.1 (c68e22c387, 2021-05-23)"
   xmlns:inkscape="http://www.inkscape.org/namespaces/inkscape"
   xmlns:sodipodi="http://sodipodi.sourceforge.net/DTD/sodipodi-0.dtd"
   xmlns="http://www.w3.org/2000/svg"
   xmlns:svg="http://www.w3.org/2000/svg">
  <sodipodi:namedview
     id="namedview7"
     pagecolor="#171717"
     bordercolor="#999999"
     borderopacity="1"
     inkscape:pageshadow="0"
     inkscape:pageopacity="0"
     inkscape:pagecheckerboard="0"
     inkscape:document-units="px"
     showgrid="false"
     units="px"
     inkscape:zoom="0.51882119"
     inkscape:cx="371.99714"
     inkscape:cy="-112.75561"
     inkscape:window-width="3440"
     inkscape:window-height="1417"
     inkscape:window-x="-8"
     inkscape:window-y="-8"
     inkscape:window-maximized="1"
     inkscape:current-layer="layer1"
     inkscape:object-paths="true"
     inkscape:snap-intersection-paths="true"
     inkscape:snap-smooth-nodes="true"
     inkscape:snap-midpoints="true"
     inkscape:snap-object-midpoints="true"
     showguides="true"
     inkscape:snap-global="true">
    <inkscape:grid
       type="xygrid"
       id="grid836"
       originx="-1283.6894"
       originy="-358.47293" />
  </sodipodi:namedview>
  <defs
     id="defs2" />
  <g
     inkscape:label="Layer 1"
     inkscape:groupmode="layer"
     id="layer1"
     transform="translate(-1283.6894,-358.47293)">
    <path
       id="path23592"
       style="fill:#940b22;fill-opacity:1;stroke:none;stroke-width:0.5;stroke-linecap:butt;stroke-linejoin:miter;stroke-miterlimit:4;stroke-dasharray:none;stroke-opacity:1"
       d="m 1338.2844,358.47293 c -22.2093,7.9364 -41.7029,26.31971 -54.595,49.11377 0,0 25.6003,4.99353 23.8913,15.99893 -1.7089,11.00539 -18.5786,1.79325 -18.5786,1.79325 0.351,6.21188 4.5199,12.82893 19.1707,18.29992 14.6508,5.47098 13.9939,23.31671 13.9939,23.31671 -4.1771,-1.7249 -9.2726,-2.86071 -13.2184,-3.37262 6.1857,18.7444 6.4064,18.52618 25.1727,22.85004 l -4.4529,-54.51083 c 0,0 -14.5232,-8.28201 -14.5232,-23.62352 0,-15.34153 10.6708,-23.87246 24.1096,-23.82013 13.4387,0.0523 23.2368,11.09244 23.2368,25.1748 0,14.08235 -14.426,22.07655 -14.426,22.07655 l -4.0684,44.92446 c 18.2919,-5.29735 19.1341,-5.80956 23.6258,-24.59363 -3.0369,0.79537 -5.9233,1.34111 -9.4763,2.99669 0,0 2.9764,-18.69701 10.9281,-20.7154 7.9517,-2.01839 15.5521,-8.01965 16.2668,-10.84382 0,0 -8.1352,2.10095 -9.4395,-4.59767 -1.3042,-6.69863 18.637,-11.66701 18.637,-11.66701 -13.966,-19.3361 -31.8571,-39.42111 -56.2544,-48.80049 z m 0.8728,39.11689 c -4.1452,2.19006 -7.6672,5.52651 -10.2648,10.55431 3.0167,4.54957 6.2252,8.93302 10.2648,12.58739 4.0813,-3.66804 7.8168,-7.53819 10.36,-12.10343 -2.7146,-4.91062 -6.0969,-8.7085 -10.36,-11.03827 z" />
  </g>
</svg>
